<?xml version="1.0" encoding="UTF-8"?>
<svg id="_图层_2" data-name="图层 2" xmlns="http://www.w3.org/2000/svg" viewBox="0 0 216.93 45.51">
  <defs>
    <style>
      .cls-1 {
        fill: #fff;
        stroke-width: 0px;
      }
    </style>
  </defs>
  <g id="_图层_3" data-name="图层 3">
    <g>
      <g>
        <path class="cls-1" d="m45.91,13.92c1.92.65,2.42,1.29,2.42,2.36,0,2.54-2.58,3.28-11.72,3.28h-.35l6.01,4.11c-.3.32-.86.69-1.77.88v10.53c-.05.28-2.83,1.15-5.15,1.39,19.34,2.45,9.85,10.72,4.14,7.07-2.58-1.89-7.17-4.67-14.04-6.56-2.93,3.79-9.29,6.19-24.39,7.44l-.25-.74c19.85-3.65,20.1-8.45,20.25-18.76l9.14,1.52c-.2.6-.76,1.06-1.92,1.06-.4,3.28-.76,6.05-2.07,8.36,2.63.05,4.95.18,6.97.37v-12.61H15.2v12.98c0,.6-3.18,2.03-6.16,2.03h-1.01v-18.94l.86.28v-7.9c-2.63,1.48-5.5,2.73-8.54,3.65l-.35-.46C5.35,11.38,9.9,5.19,11.92.62l8.28,3.19c-.2.46-.66.83-1.87.79-.91,1.06-2.07,2.17-3.33,3.23l2.27.79c-.15.42-.66.74-1.57.88v9.1c-.1.42-2.88,1.43-5.56,1.43h-1.21l6.67,2.31h17.07l2.83-2.77h-4.39c-5.81,0-7.22-.97-7.22-4.9v-.18c-2.47.74-5.05,1.43-7.58,2.03l-.2-.46c2.58-1.2,5.25-2.68,7.78-4.25V.89l8.43.6c-.1.65-.56,1.06-1.67,1.2v4.39c2.12-1.66,3.94-3.28,5.25-4.76l8.33,4.11c-.45.6-1.36.88-3.18.65-2.73,1.71-6.31,3.46-10.4,5.04v1.39c0,.65.3.88,1.82.88h4.9c1.52,0,3.08,0,3.84-.05.71-.05,1.21-.14,1.67-.46.56-.51,1.41-1.8,2.32-3.6h.51l.2,3.65Z"/>
        <path class="cls-1" d="m92.02,13.04s4.04,2.82,6.46,4.76c-.15.51-.71.74-1.46.74h-16.16c-2.83,1.89-5.91,3.74-9.24,5.45h11.11l3.23-3.23,6.57,4.57c-.3.37-.91.83-1.97,1.02v16.68c-.1.37-3.69,1.57-6.11,1.57h-1.21v-3.65h-14.19v1.71c0,.65-3.08,2.13-6.11,2.13h-1.06v-16.45c-3.54,1.34-7.27,2.54-11.21,3.51l-.3-.6c3.99-1.66,7.83-3.6,11.51-5.73v-4.2l4.34,1.52c2.12-1.39,4.14-2.82,6.06-4.3h-20.56l-.4-1.29h16.21v-7.35h-11.51l-.4-1.29h11.92V.89l8.94.65c-.1.6-.4,1.02-1.62,1.2v5.87h.96l3.43-4.07s2.53,1.76,4.75,3.42c1.92-2.03,3.59-4.07,4.95-6.01l7.63,4.99c-.4.42-1.01.65-2.22.32-3.08,3.28-6.97,6.7-11.62,9.98h5.76l3.54-4.2Zm-22.98,12.24v6.33h14.19v-6.33h-14.19Zm14.19,14.37v-6.74h-14.19v6.74h14.19Zm-8.38-29.75v6.61c2.68-2.17,5.15-4.39,7.32-6.61h-7.32Z"/>
        <path class="cls-1" d="m148.33,5.65c-.35.37-1.01.79-2.02.97v31.18c0,4.16-1.21,6.47-9.34,7.07-.25-1.99-.61-3.33-1.67-4.25-1.11-.92-2.32-1.62-5.61-2.08v-.6s6.82.37,8.33.37c.96,0,1.21-.42,1.21-1.06V9.49c-.3.14-.71.28-1.31.32-.71,3.23-1.57,6.88-2.88,10.53,6.87,10.53,1.72,17.37-2.12,13.03-.3-1.62-.66-3.51-1.16-5.54-2.32,4.34-5.4,8.41-9.6,11.64l-.51-.37c3.89-5.64,6.26-12.93,7.63-19.96-1.01-2.77-2.22-5.54-3.74-7.95-.66,3.1-1.52,6.56-2.78,10.02,5.35,8.13,1.36,13.67-2.47,10.16-.25-.88-.51-1.8-.86-2.77-1.97,3.56-4.55,6.93-7.88,9.7l-.51-.32c2.83-4.71,4.7-10.58,5.86-16.4-1.52-3.56-3.43-7.25-5.86-10.3v31.04c0,.83-2.78,2.4-5.76,2.4h-1.16V1.59l7.47,2.73h27.12l3.18-3.28,6.41,4.62Zm-9.09,2.96v-3h-28.18v5.4l.4-.23c2.53,1.62,4.65,3.28,6.41,4.85.35-3,.56-5.87.66-8.45l9.19,1.62c-.15.6-.56,1.02-1.92,1.15l-.2.97.45-.23c1.52,1.25,2.83,2.45,4.04,3.65.3-2.59.56-5.04.66-7.25l8.48,1.52Z"/>
      </g>
      <g>
        <path class="cls-1" d="m171.6,15.56l-1.61-2.78c2.84-.53,5.52-1.33,8.04-2.4-.93-1.09-1.64-1.9-2.13-2.43l2.38-1.82.84.89c.41.44,1.02,1.09,1.81,1.96,1.98-1.06,3.9-2.33,5.73-3.83h-7.74c-2.05,1.65-4.26,3.01-6.62,4.08l-1.94-2.47c3.52-1.52,6.72-3.78,9.58-6.77l2.98,1.42-.89.93h9.33v2.82c-2.63,2.52-5.48,4.62-8.56,6.3h8.93v10.03h-3.23v-.58h-10.22v.58h-3.23v-6.81c-.96.28-2.11.57-3.45.86Zm16.9,2.54v-3.8h-10.22v3.8h10.22Z"/>
        <path class="cls-1" d="m195.37,10.15h9.63v10.83h-3.22v-1.07h-3.18v1.07h-3.22v-10.83Zm2.28-9.61h16.03v8.45h-16.03V.54Zm4.12,16.31v-3.66h-3.18v3.66h3.18Zm8.68-10.9v-2.38h-9.58v2.38h9.58Zm-4.12,4.2h9.63v10.83h-3.23v-1.07h-3.18v1.07h-3.23v-10.83Zm6.4,6.7v-3.66h-3.18v3.66h3.18Z"/>
        <path class="cls-1" d="m182.44,43.55h-7.2v.89h-3.25v-6.32h11.39v3.99h2.08c.13,0,.24-.04.33-.13.09-.08.14-.18.14-.29v-4.13h-15.9v-2.59h2.16l-.74-2.22c1.32.03,2.48-.03,3.47-.18.99-.15,1.84-.43,2.53-.85h-4.27v-1.07h-2.63v-4.55h8.21l-.4-1.4h4.17l.4,1.4h8.21v4.55h-2.63v1.05h-4.27c.71.42,1.57.71,2.57.86,1,.16,2.15.22,3.46.19l-.77,2.22h2.16v2.59h-2.51v6.28c0,.36-.14.67-.41.92-.27.26-.6.39-.98.39h-4.86l-.47-1.59Zm-3.1-14.23c.1-.33.17-.61.2-.84h-5.76v.84h5.56Zm.82,12.04v-1.07h-4.91v1.07h4.91Zm5.68-6.39c-2.25-.5-3.91-1.45-4.99-2.85-1.08,1.4-2.74,2.35-4.99,2.85h9.97Zm2.08-5.65v-.84h-5.58c-.07.37-.12.65-.17.84h5.76Z"/>
        <path class="cls-1" d="m213.01,44.56c-3.18-1.29-5.53-2.2-7.05-2.73-1.12.87-2.5,1.56-4.13,2.06s-3.65.96-6.07,1.37l-1.34-2.8c2.08-.34,3.82-.7,5.2-1.07,1.38-.37,2.55-.85,3.51-1.45h-8.34v-2.59h5.26c-.96-.5-2.03-1-3.2-1.49l1.29-1.87c1.77.73,3.62,1.59,5.56,2.57l-.55.79h2.51c.56-1.21.81-2.75.75-4.62h3.1c.05,1.7-.12,3.23-.52,4.62h7.44v2.59h-7.82l1.39.42c.26.08,1.15.36,2.65.84,1.5.48,2.93.99,4.27,1.52l-1.61,2.8c-.51-.2-1.28-.52-2.31-.96Zm-17.72-14.86h8.71v-1.14h-7.74v-2.59h7.74v-1.63h3.25v1.63h7.74v2.59h-7.74v1.14h9.4v2.59l-2.63,3.5-2.9-1.38,1.54-2.12h-10.82c1.69.72,2.94,1.26,3.75,1.63l-1.34,1.98c-1.92-.95-3.72-1.76-5.41-2.43l.82-1.19h-4.37v-2.59Z"/>
      </g>
      <rect class="cls-1" x="161.31" y="3.97" width="1.19" height="16.1"/>
      <rect class="cls-1" x="160.93" y="22.11" width="1.95" height="1.95" rx=".98" ry=".98"/>
      <rect class="cls-1" x="161.31" y="25.88" width="1.19" height="16.07"/>
    </g>
  </g>
</svg>