<?xml version="1.0" encoding="UTF-8"?>
<svg style="color: currentColor;" xmlns="http://www.w3.org/2000/svg" viewBox="0 0 99.49 68.66">
  <defs>
    <style>
      .cls-1 {
        fill: currentColor;
        stroke-width: 0px;
      }
    </style>
  </defs>
  <g>
    <path class="cls-1" d="m99.27,47.17c-.21-.96-.38-1.95-.37-2.92,0-.96-.29-1.81-.65-2.64-1.5-3.42-4.23-5.84-6.85-8.34-.45-.43-1.31-.95-2.18-.04,0-.68-.12-1.22.02-1.68.56-1.85.81-3.74.75-5.67,0-.26-.07-.54.01-.77.53-1.45.53-2.84.04-4.33-.27-.81.02-1.79-.07-2.68-.08-.85-.31-1.68-.56-2.93-.35-.39-1.01-1.05-1.59-1.78-.66-.84-1.69-.91-2.53-1.37-.92-.5-1.72.88-2.77-.03-.77-1.79-2.45-2.63-4.33-3.18-.23.25-.39.42-.54.59.37.55.71,1.05,1.13,1.66v2.18c-.75,1.01-1.82,1.27-3,1.38-.08-.48-.13-.83-.18-1.13-.45.56-.86,1.07-1.33,1.65-.47-.21-.85-.37-1.22-.54-.03-1.15-.19-2.16-1.36-2.87-.2.33-.36.6-.7,1.18v3.69c-1.52.72-3.02,1.44-4.52,2.15.45.79.45.87.9.86.88-.02,1.53.38,2.19,1.01v1.96c.78.75,1.48.77,2.1.13.2-.94.46-1.76.55-2.6.13-1.32,1.06-2.15,1.72-3.15,1.36-.34,2.45-1.73,3.98-1.08.18.78.34,1.49.5,2.2-.13.16-.36.33-.37.5-.03,1.21-.02,2.41-.02,3.59.55.25,1.03.47,1.49.68v.88c-.73.73-1.46,1.36-2.07,2.1-.59.71-1.71.84-2.16,2.12,2.98-1.64,6.07-2.53,8.13-5.07v-1.53c-.19-.19-.37-.37-.64-.64-1.08.17-2.23.36-2.96.48-.68-.47-1.1-.76-1.5-1.03.2-.39.34-.65.48-.92.86-1.57,1.72-3.14,2.59-4.71.2-.37.4-.74.58-1.08.87,0,1.66-.12,2.4.03.72.15,1.58.26,1.79,1.27.08.4.75,2.58.75,2.96,0,2.83.04,5.65-.02,8.48-.03,1.43-.24,2.85-.37,4.27,0,.06,0,.13-.02.18-.66,1.1-.28,2.54-1.14,3.58-.3,2.12-1.17,3.99-2.28,5.81-.54.88-1.23,1.16-2.07,1.18-.91.02-1.82-.18-2.86-.3-.15.17-.38.44-.66.76.91.65,1.11,1.58,1.27,2.44.23,1.18.65,2.21,1.52,3.03.41.39.6.79.32,1.4-.7.19-1.44.4-2.19.6v.58c.63,1.15,1.6,1.66,2.91,1.53.34-.49,1.12-.71.95-1.53,0-.57,0-1.14,0-1.7.29-.44.96-.67.77-1.38.02-.49-.1-.98.39-1.4.28-.24.36-.73.6-1.27,1.91-.03,2.11-1.94,2.73-3.25.83-1.77,1.24-3.73,1.83-5.61,2.87.37,4.86,1.81,5.75,4.59-2.24,2-4.38,3.92-6.19,5.54-1.8.71-3.33.78-4.72,1.39v1.38c-.25.21-.53.45-.77.66.15.26.27.46.38.66v1.34c-2.08,2.1-2.55,2.2-4.51.91-.17-.61-.34-1.24-.51-1.87-.2-.26-.4-.51-.55-.7h-.94c-.26,1.55.15,2.86,1,4.04-.65.96-.85,1.84-.54,2.9,1-.72,1.08-.96.63-2.77,0,0,0,0,0,0,.89.16,1.78.32,2.65.48.05.65.1,1.25.15,1.91.31-.09.48-.14.74-.22-.17-.61-.32-1.14-.49-1.75h1.82c.24.75.89,1.4.42,2.18-1.47.17-2.9.24-4.29.51-2.43.46-2.53.58-4.28-.05-1.11-.4-2.32-.63-3.24-1.47.35-.05.7-.09,1.04-.18.34-.09.67-.23,1.13-.39.48-.46,1.07-1.04,1.58-1.53v-1.18c-1.38,1.06-2.62,2-3.86,2.95.02.09.04.19.06.28-.42-.06-.81-.07-1.25-.23-1.79-.65-3.43-1.83-5.47-1.72-.24.01-.5-.29-.79-.48-.32.47-.57.85-.82,1.21-1.01-1.59-1.18-3.41-.84-5.17.25-1.31.7-2.59.69-3.95,0-.12.05-.24.08-.35.06.06.13.13.19.19.24-.39.47-.77.66-1.07.39,0,.68-.07.9.01.66.26,1.34.52,1.94.89.79.48,1.41.38,1.98-.29-1.42-1.02-2.84-2.03-4.39-3.14.76-.83,1.63-1.46,2.06-2.31.73-1.43,2.01-2.09,3.24-2.88,2.04-1.3,4.33-1.99,6.61-2.66,1.49-.44,2.94-1.05,4.52-1.23.54-.06,1.03-.55,1.6-.89-.44-.23-.76-.39-1.28-.66-1.64.35-3.49-.13-5.42.35-2.33.58-4.35,1.66-6.36,2.83-1.04.6-2.01,1.31-2.99,1.96-.13-.13-.21-.17-.22-.22-.38-3.04.42-6.05.34-9.08.75-1.5.22-3.07.41-4.54-.39-.26-.63-.43-.91-.62-.25.59-.62,1.07-.63,1.56-.04,1.74-.61,3.38-.82,5.08-.1.85-.54,1.65-.37,2.54-.86.55-.13,1.52-.62,2.26-.43.65-.33,1.64-.56,2.46-.1.36-.43.65-.7,1.03-1.05-.67-1.95-1.24-2.63-1.68.11-1.08.28-1.87.24-2.65-.08-1.37.37-2.41,1.53-3.21h1.24c.32-.76.76-1.51.92-2.31.3-1.45.77-2.88.52-4.36-.3-1.49-1.86-1.73-2.59-2.68-.44-1.81.8-3.49.2-5.23-.21-.05-.39-.09-.56-.12-.21-2.02-.43-2.34-2.27-3.3-.67.82-1.34,1.64-2.02,2.47.04.04.21.13.21.22.02,1.46.01,2.92.01,4.47.34.24.65.45.88.61,0,.28.04.43,0,.53-.57,1.12-1.22,2.23-1.9,3.25-1.14,1.71-2.82,2.93-4.99,3.09-.06.69-.11,1.29-.16,1.89-.27-.03-.39-.04-.59-.06-.05-.34-.1-.69-.14-.92-.34.24-.71.51-1.02.74.19.37.36.68.48.92.49.08.93.12,1.34.24,1.73.51,3.3.3,4.58-1.05.64-.67,1.42-1.22,1.81-2.14.15-.35.64-.56.98-.83.57-.6.68-1.56,1.52-1.95.07-.12.16-.23.25-.33.04.04.08.08.12.12l-.32.27s-.05-.05-.06-.06c-.12.81-.26,1.6-1.14,1.95,0,.32.14.75-.02.94-1.22,1.46-2.07,3.28-4,4.04-.21.08-.43.12-.59.17-.03.42-.05.72-.09,1.42-.71-.86-1.19-1.44-1.74-2.1-.67.3-1.26.57-1.76.79-.39.75-.82,1.34-1.04,2.01-.43,1.3-1.21,2.49-1.17,3.95,2.3-.21,3.97-1.8,6.07-2.89.05.62.08,1.09.14,1.78-.44-.16-.74-.27-1.11-.4-.18.54-.39,1.15-.62,1.84h-2.49c-.04.53-.07,1.01-.11,1.53h-.96c-.3-.61-.62-1.24-.92-1.85-.66.43-1.33.85-1.94,1.35-.52.42-1.32-.18-1.71.54-2.84.71-5.7,1.26-8.62,1.57-.6.06-1.19.19-1.95.32-.65-1.37-1.35-2.87-2.06-4.38.93-.37,2.02-.35,2.51-1.62-.58-.46-1.16-.93-1.82-1.46.46-.29.76-.48,1.03-.65.43.73.8,1.37,1.13,1.94,1.07-.4.44-1.34.83-1.88h.81c1.33-2.75.18-6.17-.95-8.96.07-.54,1.07-.62.65-1.44h-2.94c-.64-.33-1.04-.54-1.5-.77-.23.4-.44.77-.6,1.05-.62.17-1.17.31-1.97.53.32-.37.44-.5.65-.74-.68-.17-1.32-.48-1.94-.45-2.31.12-4.68-.48-6.89.4-.2.46-.36.84-.54,1.26.69.91,1.87.72,2.72,1.23-.78.39-1.57.78-2.51,1.26.53.52.95.94,1.43,1.42.89-1.16,1.96-1.52,3.44-1.28.91.91,1.95,1.95,2.95,2.95,1.55-.38,3.34-.46,4.02-3.01v-3.25c.9.94,1.36,1.97,1.05,2.91-.37,1.1-.27,2.29-.92,3.41-1.35.3-2.82.63-4.34.97-.11.22-.25.53-.45.96.72.98,1.48,2.01,2.31,3.15-.01.15-.05.45-.07.72-1.42-.85-1.99-2.28-2.83-3.6-1.9.19-3.75.37-5.52.55-.27,1.1.23,1.81.68,2.55.07.11-.07.34-.15.66-.34-.52-.59-.91-.84-1.29h-.84c-.32,1.01-.64,2.03-.95,3.03-.38.04-.68.07-1.07.11,0,.86.07,1.69-.01,2.5-.17,1.62-.32,3.3-1.17,4.72-.7,1.16-.25,2.19.22,3.09,1.22,2.3,3.27,3.53,5.84,3.93.33.05.63.32,1.01.52-1.13.97-2.09,1.99-3.24,2.74-.75.49-1.29,1.19-2.01,1.66-2.4,1.57-4.04,3.72-5.3,6.27-.65,1.33-.56,2.79-1.23,4.18h2.53c.39-.33.73-.62.85-.73.25-.7.41-1.15.57-1.6-.24-.45-.48-.9-.75-1.41.31-.17.58-.3.83-.47.25-.17.47-.37.71-.56-.69-.6-.28-1.33-.37-1.75.73-1.88,2.37-2.48,3.63-3.52,1.28-1.06,2.76-1.73,4.16-2.56,1.4-.83,3.02-1.09,4.46-1.6.18-1.4-.08-2.66.18-3.97.83.77,1.17,1.59,1.04,2.55.34.36.66.68.82.85,1.67.74,3.26.51,4.82.53.96.01,1.93-.02,2.89.01.42.01.86.17,1.24.23,1.51.23,2.37,1.29,3.34,2.27-.17.17-.34.35-.5.53-1.8.08-3.58.81-5.4,1.89-2.29,1.35-3.07,3.32-2.95,5.81.98-.32,1.85-.61,2.74-.9-.36-.65-.67-1.22-.95-1.75,1.27-1.31,2.13-2.78,3.98-3.39.75-.12,1.73-.48,2.68-.39.97.1,1.93.42,2.95.31.3-.3.62-.62.95-.95-1.21-1.09-2.19-2.44-3.65-3.28-.15-.09-.18-.39-.31-.71h3.07c.77,1.06,1.9,1.91,3.22,2.21,2,.45,3.45,1.51,4.74,3.22-.36.24-.68.63-1.02.66-1.55.13-2.85.92-4.17,1.6-.81.42-1.54,1.03-2.19,1.67-.47.46-.78,1.1-1.13,1.61-.3.92-.59,1.82-.87,2.69.22.21.4.38.54.52.72-.39,1.41-.76,2.11-1.14.03-.5.05-.93.08-1.36.23-.23.46-.46.72-.72.02-.4.04-.84.06-1.23,1.9-2.04,4.48-2.65,6.88-3.59.4-.16,1.03-.21,1.36.32.35-.2.69-.39,1.25-.71-1.99-1.8-4.58-2.61-6.18-4.68.27-.3.44-.48.65-.71h1.59c1.7,1.25,3.27,2.61,5.2,3.42,1.63.69,2.6,1.88,3.15,3.56.37,1.12.97,2.18,1.54,3.22,1,1.81,2.73,2.96,4.03,4.46.38-.04.67-.07.9-.09.06-.31.1-.49.16-.79.75.75,1.4,1.42,2.08,2.07.27.26.55.52.86.71,2.07,1.22,4.38,1.74,6.73,1.9,1.54.1,3.1-.03,4.68-.25,1.84-.26,3.57-.78,5.2-1.48,3.39-1.46,6.58-3.73,8.66-7.4.81-1.43,1.45-2.87,1.81-4.47.32-1.43.69-2.82.82-4.31.17-1.9.32-1.87-.05-3.55ZM34.92,24.69h.51c.25.52.1.89-.22,1.35-.2.28-.04.83-.04,1.36-.36-.07-.57-.1-.72-.13.16-.91.31-1.72.47-2.57Zm-.55,3.26v1.99c-.99-.75-.99-.76,0-1.99Zm-11.81,6.43c.11-.04.23-.05.49-.1.13.62.83,1.08.34,2.07-.39-.66-.72-1.22-1.04-1.75.12-.13.16-.2.21-.22Zm.19,3.05v1.32c-.37-.5-.58-.79-.97-1.32h.97Zm-.23,6.55c-.05-.25-.08-.43-.11-.6.08-.09.17-.17.25-.26.21.17.43.35.82.67-.48.09-.7.13-.96.18Zm.54-3.56c-.65-.29-.76-.79-.48-1.57.39.21.72.4,1.01.56-.2.39-.36.7-.52,1.01Zm5.73,3.94c-.93-1.2-2.58-1.91-2.49-3.9.69.19,1.24.35,1.85.52.26.49-.08,1.13.41,1.7.27.32.85.98.24,1.68Zm1.43-9.86v-1.38c.3.06.51.1.89.18-.31.42-.53.71-.89,1.21Zm13.1,5.35c.25-.47.4-.75.64-1.2.44.54.72.88,1.03,1.26-.45.65-.8,1.17-1.32,1.91,0-.58.05-.96-.02-1.31-.05-.28-.26-.53-.33-.67Zm1.62,8.81c-.25-.95-.06-1.87-.12-2.77-.87-.97-1.17-2.12-1.16-3.42.28-.02.45-.03.65-.04.17,1.04.34,2.06.51,3.07h.69c.19.96,0,1.95.11,2.95-.21.06-.38.12-.68.21Zm13.64-19.08c.27,1.37.07,2.63-.11,4-.09-.22-.18-.44-.27-.67-.22-1-.5-2.16.38-3.33Zm-9.33,7.91c-.28.44-.47.74-.73,1.14-.27-.38-.49-.68-.82-1.14h1.54Zm-.91,5.76c1.98-1.51,3.76-2.05,5.91-1.84-1.75,1.19-3.51,1.71-5.91,1.84Zm11.98,4.34c-.3.27-.47.47-.68.6-.14.09-.34.08-.69.16.35.48.62.87.86,1.2v2.18c-1.77-.67-3.35-1.4-4.52-3v-1.2c.16-.1.49-.31.7-.44-.05-1.46.79-2.59.23-3.98-.46-1.15-.63-2.4-1.34-3.49-.75-1.15-1.97-1.62-3.23-2.32,1.23-1.07,2.02-2.56,3.92-2.14.04.33.07.63.13,1.13.52-.13,1.01-.26,1.64-.42.96.57,2.04,1.21,3.21,1.9h1.48c.05.15.13.31.16.48.07.41.12.81.21,1.43-1.26,2.44-2.58,4.98-2.08,7.91Zm35.03-6.28c.48,1,.96,2.06,1.22,3.25.25,1.17.74,2.28.81,3.64-.61,0-1.1,0-1.6,0-.68,0-1.31.07-1.97.35-.77.33-1.62.49-2.52.45-.78-.03-1.55-.12-2.38.28-.49.24-1.35-.27-2.16-.46,2.05-3.51,4.89-5.94,8.6-7.51Zm-5.9,23.36c-.43-1.51-1.17-2.64-1.8-3.83-.64-1.2-1.35-2.37-2.29-3.37-.18-.5-.42-.91-1.19-.68.3.39.55.73.81,1.06-.04.92.59,1.58.99,2.29.84,1.53,1.87,2.96,2.83,4.44-.38.7-1.11.75-2.04,1.2.29-.49.39-.66.52-.89-1.67-.43-2.66.98-4.11,1.33.1-.9-.67-1.36-1.26-1.99-.18-1.31-.36-2.65-.54-4.03h-.49c-.05.13-.15.24-.14.34.13,1.3-.27,2.62.33,3.91.17.35-.28.99-.49,1.64-1.86-.33-3.66-.64-5.5-.97-.62-.93.35-1.72.29-2.65-.06-.87.21-1.77.37-2.91-1.68,1.51-2.01,3.7-3.68,4.74-1.5-.61-3.15-.86-4.43-1.99-.13-.96.41-1.6,1.01-2.25.45-.5.88-1.04,1.21-1.62.15-.26.02-.66.02-1.21-.68.42-1.13.72-1.6.97-.15.08-.36.04-.53.05-.09.26-.17.48-.24.67-.68.23-1.46-.26-1.99.42-1.6-1.16-1.53-3.22-2.68-4.73.61-.42,1.14-.34,1.64-.13,1.59.67,3.14,1.45,4.76,2.01,1.12.39,2.33.57,3.48.92,1.21.37,2.46.59,3.68.89.17.04.34.3.45.27.86-.24,1.55.36,2.35.41,1.02.08,1.91-.27,2.81-.69.43-.2.88-.37,1.32-.55.85-1.25.39-2.66.53-4.05-.21-.06-.38-.11-.64-.18-.46-.62-.1-1.06.39-1.43.3.37.55.98.91,1.05,2.05.42,3.76,1.52,5.51,2.56.31.18.64.33,1.08.56h1.89c.04.28.09.57.16,1.03.32.32.76.76,1.06,1.06-.74,2.78-2.71,4.4-4.74,6.28Zm7.65-12.19c-.34.56-.56,1.22-.98,1.7-.46.52-.93.99-.71,1.85-1.89-.74-3.57-1.37-5.21-2.05-1.86-.78-3.69-1.66-5.61-2.3-.67-.23-.83-.68-.77-1.41.23-.18.53-.42.77-.6v-1.41c.34-.02.69-.05,1.11-.08v1.95c.62,0,1.18-.02,1.73,0,3.1.15,6.19.3,9.4.46.61.46.73,1.11.27,1.88Z"/>
    <path class="cls-1" d="m67.07,7.18c.65-.81,1.23-1.54,1.96-2.45.26.67.45,1.17.65,1.69,1.37-.1,2.78-.19,4.19-.31,1.49-.13,2.96-.39,4.47-.44,1.42-.04,2.84-.28,4.28-.38,1.54-.1,2.95.71,4.45.41.79.83,1.83,1.08,2.75.69.57-.24,1.08-.22,1.62-.27.67-.06,1.36-.05,2.41-.07-1.97-.84-3.58-1.43-5.26-1.89-1.17-.32-2.36-.53-3.54-.75-2.05-.39-4.23-.47-5.89-2.63v2.43c-.5-.3-.8-.48-1.08-.65-.05-.79-.09-1.52-.15-2.58-.72.82-1.12,1.6-1.75,1.92-.84.43-1.28,1.08-1.71,1.89-.58,0-1.15.02-1.72,0-1.56-.06-3,.34-4.42.99-1.67.76-3.4,1.41-5.11,2.11-.09.04-.16.14-.23.22.14.14.28.28.63.63,1.14-.19,2.35-.39,3.45-.56Z"/>
    <path class="cls-1" d="m13.74,41.99h2.56c-.23-2.51.6-4.6,1.45-7.01v-1.4h-1.01c-.53.59-1.2,1.13-1.61,1.82-.42.71-.67,1.5-1.38,1.91-.6-1.66-1.19-3.28-1.79-4.93-2.32,0-4.56.02-6.8,0-1.07-.01-2,.32-2.99.7-1.12.44-1.86,1.02-2.16,2.29.56.31,1.13.64,1.72.97.49-.23.92-.42,1.36-.62.62-1.13.63-1.23,1.31-1.39,1.95-.45,3.81-1.35,6.02-1.15.37.52,1.14,1.13,1.14,1.73,0,1.15.42,2.19.48,3.31.08,1.49.53,2.87,1.71,3.78Z"/>
    <path class="cls-1" d="m78.5,46.04c-.45.41-.76.7-.98.9-.38-.36-.7-.85-1.14-1.03-2.29-.96-2.89-1.39-3.5-3.02-.17-.44-.49-.83-.72-1.21h-2.19c-.3.53-.6,1.05-.9,1.58.75,1.02,1.9,1.11,2.9,1.42.46.15.83.3,1.01.69.11.24,0,.59-.02.86-1.29.21-2.19-.98-3.56-.64.17,1.04.32,2,.47,2.94.34.03.53.05.71.05,2.69,0,5.38,0,8.06,0-.07-.08-.14-.16-.2-.25.31-.11.63-.22.81-.29-.29-.78-.48-1.31-.74-2.01Z"/>
    <path class="cls-1" d="m81.87,37.3v-1.65c-.32-.32-.64-.64-1.16-1.16-1.31.6-2.53,1.23-3.8,1.73-1.27.51-2.6.87-3.88,1.34-1.27.46-2.77.2-3.94,1.18.19.09.3.19.4.19,2.51,0,5.02,0,7.52.01.94,0,1.78-.42,2.73-.47.75-.04,1.45-.78,2.12-1.18Z"/>
    <path class="cls-1" d="m63.06,47.87v1.49c.6,0,1.2.17,1.59-.05.41-.22.75-.36,1.2-.34.51.02,1.02.02,1.53,0,.46-.02.93-.07,1.62-.12-.33-.45-.5-.69-.71-.98h-5.23Z"/>
    <path class="cls-1" d="m48.34,25.96c-.77-.21-1.49-.41-2.3-.63v1.6c.99.14,1.65-.33,2.3-.98Z"/>
    <path class="cls-1" d="m57.17,48.59c-.37.02-.74.07-1.11.11.01.07.02.14.03.21h2.18c0-.11,0-.21-.01-.32-.36,0-.73-.01-1.09,0Z"/>
  </g>
</svg>